# xmcd CD Database Entry
#
# Track frame offsets:
# 150
# 17169
# 33012
# 52424
# 72944
# 91557
# 107883
# 127752
# 146088
# 166941
# 184952
#
# Disc length: 2720 seconds
#
# Revision: 2
# Processed by: cddbd v1.5.1PL0 Copyright (c) Steve Scherf et al.
# Submitted via: tcd 2.0b
#
DISCID=910a9e0b
DTITLE=Chu Na Mi/ Tune Army
DYEAR=1900
DGENRE=
TTITLE0=Brick Lane Sunday Morning
TTITLE1=You Clever Bastard
TTITLE2=Save The Last Dance
TTITLE3=King Of The Movies
TTITLE4=The Leaving Song
TTITLE5=The Navigator
TTITLE6=Kitchen Man
TTITLE7=Comin' In From The Cold
TTITLE8=I Sold Off Everything
TTITLE9=Serengeti Serenade
TTITLE10=Total Liquidation
EXTD=
EXTT0=
EXTT1=
EXTT2=
EXTT3=
EXTT4=
EXTT5=
EXTT6=
EXTT7=
EXTT8=
EXTT9=
EXTT10=
PLAYORDER=
